<svg xmlns="http://www.w3.org/2000/svg" viewBox="0 0 28 28" width="28" height="28">
  <defs>
    <linearGradient id="brandGrad" x1="0%" y1="0%" x2="100%" y2="100%">
      <stop offset="0%" stop-color="#0284c7"/>
      <stop offset="50%" stop-color="#2563eb"/>
      <stop offset="100%" stop-color="#8b5cf6"/>
    </linearGradient>
    <linearGradient id="ringGrad" x1="0%" y1="100%" x2="100%" y2="0%">
      <stop offset="0%" stop-color="#38bdf8"/>
      <stop offset="100%" stop-color="#60a5fa"/>
    </linearGradient>
  </defs>
  <!-- Sleek futuristic chevron-arrow mark like the image -->
  <path d="M7 5.5 C7 4.7 7.9 4.2 8.6 4.7 L17.5 11.2 C18.2 11.7 18.2 12.7 17.5 13.2 L8.6 19.7 C7.9 20.2 7 19.7 7 18.9 Z" fill="url(#brandGrad)"/>
  <path d="M12.5 12.5 C12.1 12.8 12.1 13.4 12.5 13.7 L17.8 18.2 C18.5 18.8 17.8 20 16.9 19.8 L6.8 17.5 C6.3 17.4 6 16.9 6 16.4 L6 22.5 C6 23.3 6.9 23.8 7.6 23.3 L22.4 14.6 C23.2 14.1 23.2 12.9 22.4 12.4 L7.6 3.7 C6.9 3.2 6 3.7 6 4.5 L6 10 C6 10.6 6.5 11 7.1 11.1 Z" fill="url(#brandGrad)" opacity="0.95"/>
  <circle cx="19" cy="8" r="2.5" fill="url(#ringGrad)"/>
</svg>
